<svg version="1.2" xmlns="http://www.w3.org/2000/svg" viewBox="0 0 512 512" width="512" height="512">
	<style>
		.s0 { fill: #ffffff } 
	</style>
	<path id="folder. copy" fill-rule="evenodd" class="s0" d="m26 261.91h458.51v187.57c0 34.48-28.04 62.52-62.53 62.52h-333.46c-34.48 0-62.52-28.04-62.52-62.52zm458.51-31.27h-458.51v-52.1c0-34.48 28.04-62.52 62.52-62.52h40.6c18.86 0 37.36 6.49 52.08 18.26l17.86 14.28c7.34 5.9 16.58 9.14 26.02 9.14h153.17c-1.06-4.96-2.23-10.75-2.11-11.42 0.23-1.18 21.89-43.6 21.89-43.6 0 0 5.83 20.51 8.96 29.01 3.14 8.49 11.58 20.29 16.17 24.08 1.08 0.89 2.66 1.61 4.44 2.18q5.75 0.52 11.16 2.04c1.6 0.14 2.64 0.19 2.64 0.19l9.62-1.51c0 0-0.62 2.21-1.53 5.41 20.73 10.19 35.02 31.53 35.02 56.14zm1.11-224.18c1.68 8.43-0.51 22.98-0.51 22.98 0 0-5.12 25.18-5.13 25.2-13.27 1.71-19.3-12.14-19.3-12.14l-7.24-21.83c0 0-0.12-0.34-0.09-0.38 8.45-11.45 20.35-18.86 23.27-19.57 2.91-0.71 7.32-2.69 9 5.74zm-31.14 39.87c7.14 17.39 19.57 16.92 19.57 16.92l3.87-0.52-8.32 33.55c0 0-2.37 0.99-4.82 1.56-21.88 5.11-29.15-26.56-29.15-26.56l-6.31-19.66 18.79-24.88c0 0-0.86 1.96 6.37 19.59zm-25.33 32.9c1.41 3.59 5.14 14.37 11.4 20.83 6.25 6.46 25.94 6.56 25.94 6.56 0 0-13.5 45.92-13.72 46.03-28.84 9.39-40.56-25.72-40.56-25.72l-10.25-31.19 21.53-35.13c0 0 4.26 15.02 5.66 18.62z"/>
</svg>